<?xml version="1.0" standalone="no"?><!DOCTYPE svg PUBLIC "-//W3C//DTD SVG 1.1//EN" "http://www.w3.org/Graphics/SVG/1.1/DTD/svg11.dtd"><svg t="1589513755318" class="icon" viewBox="0 0 1024 1024" version="1.1" xmlns="http://www.w3.org/2000/svg" p-id="2123" width="400" height="400" xmlns:xlink="http://www.w3.org/1999/xlink"><defs><style type="text/css"></style></defs><path d="M92.868219 95.190453l869.126532 0 0 629.192807L627.422591 724.38326l0 50.87031 97.518482 0 0 149.421292L296.762979 924.674862l0-149.32136 32.952658 0L394.28266 775.353502l0-50.87031L59.915761 724.483192 59.915761 95.293983l32.952658 0L92.868419 95.190453zM576.169341 724.38326l-130.532299 0 0 50.87031 130.532299 0L576.169341 724.38326 576.169341 724.38326zM673.333264 829.759615l-34.64651 0L383.214165 829.759615l-34.647309 0 0 40.609267 324.878332 0L673.333264 829.759615 673.333264 829.759615zM907.064194 154.011972 114.742389 154.011972l0 511.54837 276.217924 0 33.891422 0 205.890406 0 276.321854 0L907.063995 154.011972 907.064194 154.011972z" p-id="2124"></path></svg>